<?xml version="1.0" encoding="UTF-8"?>
<svg xmlns="http://www.w3.org/2000/svg" width="512" height="512" viewBox="0 0 128 128"><path d="M120.92,116.92a22.84,22.84,0,0,0-16.858-19.039V93.532A17.185,17.185,0,0,0,120.4,76.4v-.908a1.749,1.749,0,0,0-1.75-1.75h-.908a17.114,17.114,0,0,0-3.906.465,17.142,17.142,0,0,0,6.564-13.48v-.908a1.75,1.75,0,0,0-1.75-1.75h-.908a17.132,17.132,0,0,0-3.908.466A17.142,17.142,0,0,0,120.4,45.05v-.908a1.749,1.749,0,0,0-1.75-1.75h-.908a17.141,17.141,0,0,0-13.677,6.829V47.693l.791-.791a16.262,16.262,0,0,0,0-22.97h0l-1.3-1.3a1.753,1.753,0,0,0-2.475,0l-1.3,1.3a16.26,16.26,0,0,0,0,22.97l.791.791v1.528a17.145,17.145,0,0,0-13.678-6.829h-.908a1.749,1.749,0,0,0-1.75,1.75v.908a17.142,17.142,0,0,0,6.566,13.481,17.125,17.125,0,0,0-3.908-.466h-.908a1.75,1.75,0,0,0-1.75,1.75v.908A17.142,17.142,0,0,0,90.79,74.2a17.114,17.114,0,0,0-3.906-.465h-.908a1.749,1.749,0,0,0-1.75,1.75V76.4a17.185,17.185,0,0,0,16.336,17.136v3.76c-.605-.05-1.213-.084-1.83-.084a21.677,21.677,0,0,0-11.255,3.145,27.31,27.31,0,0,0-21.727-13.6v-3.83A17.19,17.19,0,0,0,82.665,65.76V64.273a1.75,1.75,0,0,0-1.75-1.75H79.428a17.089,17.089,0,0,0-3.063.29,17.148,17.148,0,0,0,6.3-13.282V48.044a1.75,1.75,0,0,0-1.75-1.75H79.428a17.161,17.161,0,0,0-3.062.289,17.15,17.15,0,0,0,6.3-13.281V31.815a1.75,1.75,0,0,0-1.75-1.75H79.428A17.144,17.144,0,0,0,65.75,36.893V35.466l.837-.837a16.756,16.756,0,0,0,0-23.7l-1.35-1.35a1.8,1.8,0,0,0-2.474,0l-1.35,1.35a16.756,16.756,0,0,0,0,23.7l.837.837v1.427a17.144,17.144,0,0,0-13.678-6.828H47.085a1.75,1.75,0,0,0-1.75,1.75V33.3a17.15,17.15,0,0,0,6.3,13.281,17.161,17.161,0,0,0-3.062-.289H47.085a1.75,1.75,0,0,0-1.75,1.75v1.487a17.148,17.148,0,0,0,6.3,13.282,17.089,17.089,0,0,0-3.063-.29H47.085a1.75,1.75,0,0,0-1.75,1.75V65.76A17.19,17.19,0,0,0,62.25,82.925v3.83a27.31,27.31,0,0,0-21.727,13.6,21.677,21.677,0,0,0-11.255-3.145c-.617,0-1.225.034-1.83.084v-3.76A17.185,17.185,0,0,0,43.774,76.4v-.908a1.749,1.749,0,0,0-1.75-1.75h-.908a17.114,17.114,0,0,0-3.906.465,17.142,17.142,0,0,0,6.564-13.48v-.908a1.75,1.75,0,0,0-1.75-1.75h-.908a17.125,17.125,0,0,0-3.908.466A17.142,17.142,0,0,0,43.774,45.05v-.908a1.749,1.749,0,0,0-1.75-1.75h-.908a17.145,17.145,0,0,0-13.678,6.829V47.693l.791-.791a16.26,16.26,0,0,0,0-22.97h0l-1.3-1.3a1.753,1.753,0,0,0-2.475,0l-1.3,1.3a16.262,16.262,0,0,0,0,22.97l.791.791v1.528a17.141,17.141,0,0,0-13.677-6.829H9.353a1.749,1.749,0,0,0-1.75,1.75v.908a17.142,17.142,0,0,0,6.566,13.481,17.132,17.132,0,0,0-3.908-.466H9.353a1.75,1.75,0,0,0-1.75,1.75v.908A17.142,17.142,0,0,0,14.167,74.2a17.114,17.114,0,0,0-3.906-.465H9.353a1.749,1.749,0,0,0-1.75,1.75V76.4A17.185,17.185,0,0,0,23.938,93.532v4.349A22.84,22.84,0,0,0,7.08,116.92a1.751,1.751,0,0,0,1.731,2.011H119.189a1.751,1.751,0,0,0,1.731-2.011ZM104.089,90.047A13.7,13.7,0,0,1,116.87,77.265,13.7,13.7,0,0,1,104.089,90.047Zm-.027-9.48V77.858a17.182,17.182,0,0,0,3.064-.422A17.269,17.269,0,0,0,104.062,80.567Zm.027-6.193A13.7,13.7,0,0,1,116.87,61.592,13.7,13.7,0,0,1,104.089,74.374Zm-.027-9.48v-2.71a17.125,17.125,0,0,0,3.067-.423A17.263,17.263,0,0,0,104.062,64.894ZM116.87,45.919A13.7,13.7,0,0,1,104.089,58.7,13.7,13.7,0,0,1,116.87,45.919ZM102.245,26.407l.067-.066.066.066a12.75,12.75,0,0,1,.539,17.423,1.665,1.665,0,0,0-1.211,0A12.75,12.75,0,0,1,102.245,26.407ZM87.753,45.919A13.7,13.7,0,0,1,100.534,58.7,13.7,13.7,0,0,1,87.753,45.919Zm12.809,16.265v2.71a17.3,17.3,0,0,0-3.068-3.133A17.123,17.123,0,0,0,100.562,62.184Zm-12.809-.592a13.7,13.7,0,0,1,12.781,12.782A13.7,13.7,0,0,1,87.753,61.592Zm12.809,16.266v2.709A17.307,17.307,0,0,0,97.5,77.436,17.18,17.18,0,0,0,100.562,77.858Zm-12.809-.593a13.7,13.7,0,0,1,12.781,12.782A13.7,13.7,0,0,1,87.753,77.265ZM27.466,90.047A13.7,13.7,0,0,1,40.247,77.265,13.7,13.7,0,0,1,27.466,90.047Zm-.028-9.48V77.858a17.18,17.18,0,0,0,3.065-.422A17.307,17.307,0,0,0,27.438,80.567Zm.028-6.193A13.7,13.7,0,0,1,40.247,61.592,13.7,13.7,0,0,1,27.466,74.374Zm-.028-9.48v-2.71a17.123,17.123,0,0,0,3.068-.423A17.3,17.3,0,0,0,27.438,64.894ZM40.247,45.919A13.7,13.7,0,0,1,27.466,58.7,13.7,13.7,0,0,1,40.247,45.919ZM25.622,26.407l.066-.066.067.066a12.75,12.75,0,0,1,.539,17.423,1.665,1.665,0,0,0-1.211,0A12.75,12.75,0,0,1,25.622,26.407ZM11.13,45.919A13.7,13.7,0,0,1,23.911,58.7,13.7,13.7,0,0,1,11.13,45.919ZM23.938,62.184v2.71a17.263,17.263,0,0,0-3.067-3.133A17.125,17.125,0,0,0,23.938,62.184ZM11.13,61.592A13.7,13.7,0,0,1,23.911,74.374,13.7,13.7,0,0,1,11.13,61.592ZM23.938,77.858v2.709a17.269,17.269,0,0,0-3.064-3.131A17.182,17.182,0,0,0,23.938,77.858ZM11.13,77.265A13.7,13.7,0,0,1,23.911,90.047,13.7,13.7,0,0,1,11.13,77.265Zm54.623,2.171a13.693,13.693,0,0,1,13.409-13.41A13.694,13.694,0,0,1,65.753,79.436Zm0-10.084V66.695a17.208,17.208,0,0,0,2.8-.276A17.321,17.321,0,0,0,65.75,69.352Zm0-6.146A13.694,13.694,0,0,1,79.162,49.8,13.694,13.694,0,0,1,65.753,63.206Zm0-10.083V50.467a17.183,17.183,0,0,0,2.8-.276A17.342,17.342,0,0,0,65.75,53.123ZM79.162,33.567A13.7,13.7,0,0,1,65.753,46.978,13.694,13.694,0,0,1,79.162,33.567ZM60.005,22.78a13.168,13.168,0,0,1,3.883-9.373L64,13.294l.112.113a13.228,13.228,0,0,1,.537,18.156,1.722,1.722,0,0,0-1.3,0A13.154,13.154,0,0,1,60.005,22.78ZM48.838,33.567A13.694,13.694,0,0,1,62.247,46.978,13.7,13.7,0,0,1,48.838,33.567Zm13.412,16.9v2.656a17.342,17.342,0,0,0-2.8-2.932A17.183,17.183,0,0,0,62.25,50.467ZM48.838,49.8A13.694,13.694,0,0,1,62.247,63.206,13.694,13.694,0,0,1,48.838,49.8Zm13.412,16.9v2.657a17.321,17.321,0,0,0-2.8-2.933A17.208,17.208,0,0,0,62.25,66.695Zm-13.412-.669a13.693,13.693,0,0,1,13.409,13.41A13.694,13.694,0,0,1,48.838,66.026Zm-37.9,49.405A19.175,19.175,0,0,1,25.993,101c.03-.005.061-.011.091-.018a18.322,18.322,0,0,1,14.03,3.3,1.75,1.75,0,0,0,2.6-.628,23.573,23.573,0,0,1,42.582,0,1.75,1.75,0,0,0,2.595.628,18.327,18.327,0,0,1,14.038-3.3L102,101a19.174,19.174,0,0,1,15.062,14.433Z"/></svg>
