<svg xmlns="http://www.w3.org/2000/svg" width="34" height="34" viewBox="0 0 34 34">
  <g id="agriculture" transform="translate(-8.81 -10.819)">
    <g id="Group_9503" data-name="Group 9503" transform="translate(8.81 10.819)">
      <g id="Group_9502" data-name="Group 9502" transform="translate(11.79 6.712)">
        <path id="Path_5197" data-name="Path 5197" d="M52.3,53.451v-.475a4.844,4.844,0,0,0-4.752-4.931h-.458v.475a4.844,4.844,0,0,0,4.752,4.931Z" transform="translate(-47.085 -42.856)" fill="#ffbe40"/>
        <path id="Path_5198" data-name="Path 5198" d="M52.3,37.222v-.476a4.844,4.844,0,0,0-4.752-4.931h-.458v.475a4.845,4.845,0,0,0,4.753,4.932Z" transform="translate(-47.085 -31.815)" fill="#ffbe40"/>
        <path id="Path_5199" data-name="Path 5199" d="M52.3,69.68V69.2a4.844,4.844,0,0,0-4.752-4.931h-.458v.475a4.845,4.845,0,0,0,4.752,4.932Z" transform="translate(-47.085 -53.897)" fill="#ffbe40"/>
      </g>
      <path id="Path_5200" data-name="Path 5200" d="M69.21,48.519v-.475h-.458A4.844,4.844,0,0,0,64,52.976v.475h.458a4.844,4.844,0,0,0,4.752-4.932Z" transform="translate(-47 -36.144)" fill="#e2ad43"/>
      <path id="Path_5201" data-name="Path 5201" d="M69.21,32.29v-.475h-.458A4.844,4.844,0,0,0,64,36.747v.475h.458A4.845,4.845,0,0,0,69.21,32.29Z" transform="translate(-47 -25.103)" fill="#e2ad43"/>
      <path id="Path_5202" data-name="Path 5202" d="M60.439,18.035a4.926,4.926,0,0,0,0-6.784l-.416-.432-.416.432a4.924,4.924,0,0,0,0,6.784l.416.432Z" transform="translate(-43.023 -10.819)" fill="#ffbe40"/>
      <path id="Path_5203" data-name="Path 5203" d="M69.21,64.748v-.475h-.458A4.844,4.844,0,0,0,64,69.2v.475h.458A4.845,4.845,0,0,0,69.21,64.748Z" transform="translate(-47 -47.186)" fill="#e2ad43"/>
      <path id="Path_5204" data-name="Path 5204" d="M14.384,65.037v-.29a4.845,4.845,0,0,0-4.752-4.932h-.28v.29A4.845,4.845,0,0,0,14.1,65.037Z" transform="translate(-9.185 -44.153)" fill="#ffbe40"/>
      <path id="Path_5205" data-name="Path 5205" d="M14.384,49.364v-.29a4.845,4.845,0,0,0-4.752-4.932h-.28v.29A4.844,4.844,0,0,0,14.1,49.364Z" transform="translate(-9.185 -33.49)" fill="#ffbe40"/>
      <path id="Path_5206" data-name="Path 5206" d="M14.384,80.71v-.29a4.845,4.845,0,0,0-4.752-4.932h-.28v.292A4.844,4.844,0,0,0,14.1,80.71Z" transform="translate(-9.185 -54.816)" fill="#ffbe40"/>
      <path id="Path_5207" data-name="Path 5207" d="M30.72,60.105v-.29h-.28a4.845,4.845,0,0,0-4.752,4.932v.29h.281A4.845,4.845,0,0,0,30.72,60.105Z" transform="translate(-20.489 -44.153)" fill="#e2ad43"/>
      <path id="Path_5208" data-name="Path 5208" d="M30.72,44.432v-.29h-.28a4.845,4.845,0,0,0-4.752,4.932v.29h.281a4.844,4.844,0,0,0,4.751-4.931Z" transform="translate(-20.489 -33.49)" fill="#e2ad43"/>
      <path id="Path_5209" data-name="Path 5209" d="M22.254,30.836a4.758,4.758,0,0,0,0-6.552l-.4-.416-.4.416a4.757,4.757,0,0,0,0,6.553l.4.416Z" transform="translate(-16.653 -19.697)" fill="#ffbe40"/>
      <path id="Path_5210" data-name="Path 5210" d="M30.72,75.782v-.29h-.28a4.844,4.844,0,0,0-4.752,4.931v.29h.281a4.845,4.845,0,0,0,4.751-4.931Z" transform="translate(-20.489 -54.818)" fill="#e2ad43"/>
      <path id="Path_5211" data-name="Path 5211" d="M91.008,65.037v-.29a4.845,4.845,0,0,0-4.752-4.932h-.28v.29a4.845,4.845,0,0,0,4.751,4.932Z" transform="translate(-62.207 -44.153)" fill="#ffbe40"/>
      <path id="Path_5212" data-name="Path 5212" d="M91.008,49.364v-.29a4.845,4.845,0,0,0-4.752-4.932h-.28v.29a4.844,4.844,0,0,0,4.751,4.931Z" transform="translate(-62.207 -33.49)" fill="#ffbe40"/>
      <path id="Path_5213" data-name="Path 5213" d="M91.008,80.71v-.29a4.845,4.845,0,0,0-4.752-4.932h-.28v.292a4.845,4.845,0,0,0,4.751,4.931Z" transform="translate(-62.207 -54.816)" fill="#ffbe40"/>
      <path id="Path_5214" data-name="Path 5214" d="M107.344,60.105v-.29h-.28a4.845,4.845,0,0,0-4.752,4.932v.29h.279a4.845,4.845,0,0,0,4.753-4.932Z" transform="translate(-73.511 -44.153)" fill="#e2ad43"/>
      <path id="Path_5215" data-name="Path 5215" d="M107.344,44.432v-.29h-.28a4.845,4.845,0,0,0-4.752,4.932v.29h.279a4.845,4.845,0,0,0,4.753-4.932Z" transform="translate(-73.511 -33.49)" fill="#e2ad43"/>
      <path id="Path_5216" data-name="Path 5216" d="M98.877,30.836a4.758,4.758,0,0,0,0-6.552l-.4-.416-.4.416a4.757,4.757,0,0,0,0,6.553l.4.416Z" transform="translate(-69.674 -19.697)" fill="#ffbe40"/>
      <path id="Path_5217" data-name="Path 5217" d="M107.344,75.782v-.29h-.28a4.845,4.845,0,0,0-4.752,4.932v.29h.279a4.845,4.845,0,0,0,4.753-4.932Z" transform="translate(-73.511 -54.818)" fill="#e2ad43"/>
      <path id="Path_5218" data-name="Path 5218" d="M36.509,91.806a6.033,6.033,0,0,0-3.659,1.249,7.681,7.681,0,0,0-14.08,0,6.033,6.033,0,0,0-3.659-1.249,6.557,6.557,0,0,0-6.3,5.825h34A6.556,6.556,0,0,0,36.509,91.806Z" transform="translate(-8.81 -63.631)" fill="#e2ad43"/>
    </g>
  </g>
</svg>
