<?xml version="1.0" standalone="no"?>
<!DOCTYPE svg PUBLIC "-//W3C//DTD SVG 20010904//EN"
 "http://www.w3.org/TR/2001/REC-SVG-20010904/DTD/svg10.dtd">
<svg version="1.0" xmlns="http://www.w3.org/2000/svg"
 width="556.000000pt" height="532.000000pt" viewBox="0 0 556.000000 532.000000"
 preserveAspectRatio="xMidYMid meet">

<g transform="translate(0.000000,532.000000) scale(0.100000,-0.100000)"
fill="#000000" stroke="none">
<path d="M2480 4730 l0 -160 160 0 160 0 0 160 0 160 -160 0 -160 0 0 -160z"/>
<path d="M1705 4385 c-21 -20 -25 -34 -25 -80 l0 -55 960 0 960 0 0 55 c0 46
-4 60 -25 80 l-24 25 -911 0 -911 0 -24 -25z"/>
<path d="M2110 3663 c-74 -180 -143 -346 -152 -369 l-17 -42 72 -30 72 -30 11
21 c16 30 294 704 294 712 0 6 -86 47 -125 58 -18 6 -33 -25 -155 -320z"/>
<path d="M2953 3959 c-35 -16 -63 -31 -63 -33 0 -4 221 -490 224 -493 5 -5
146 61 144 67 -60 143 -224 490 -232 489 -6 0 -39 -14 -73 -30z"/>
<path d="M1495 3700 l-280 -280 58 -57 57 -58 282 282 283 283 -55 55 c-30 30
-57 55 -60 55 -3 0 -131 -126 -285 -280z"/>
<path d="M3620 3925 l-55 -55 203 -203 202 -202 57 58 58 57 -200 200 c-110
110 -202 200 -205 200 -3 0 -30 -25 -60 -55z"/>
<path d="M2560 3530 l0 -400 80 0 80 0 0 400 0 400 -80 0 -80 0 0 -400z"/>
<path d="M4137 3412 c-26 -26 -47 -52 -47 -57 0 -5 23 -33 52 -62 l52 -53 58
57 58 57 -52 53 c-29 29 -57 53 -63 53 -6 0 -32 -22 -58 -48z"/>
<path d="M3245 3314 c-33 -15 -62 -28 -64 -30 -6 -6 51 -144 60 -144 7 0 129
50 138 56 7 6 -53 144 -63 144 -6 -1 -38 -12 -71 -26z"/>
<path d="M1047 3252 l-57 -58 58 -57 58 -57 57 58 57 58 -58 57 -58 57 -57
-58z"/>
<path d="M4367 3182 l-57 -58 55 -54 55 -55 58 58 57 57 -55 55 -55 55 -58
-58z"/>
<path d="M1856 3048 c-42 -96 -44 -90 34 -122 39 -16 73 -27 75 -24 9 9 55
119 55 132 0 10 -115 66 -136 66 -3 0 -15 -24 -28 -52z"/>
<path d="M3855 3023 c-69 -84 -141 -225 -160 -318 -41 -195 12 -418 156 -660
34 -58 65 -105 69 -105 13 0 129 207 165 295 98 236 98 435 1 630 -41 83 -146
225 -166 225 -5 0 -34 -30 -65 -67z"/>
<path d="M820 3025 l-55 -55 58 -58 57 -57 55 55 55 55 -58 58 -58 57 -54 -55z"/>
<path d="M3370 3019 c-74 -32 -74 -34 -36 -121 l25 -57 63 25 c35 14 67 29 72
34 8 8 -42 151 -53 149 -3 -1 -35 -14 -71 -30z"/>
<path d="M2560 2890 l0 -80 80 0 80 0 0 80 0 80 -80 0 -80 0 0 -80z"/>
<path d="M1734 2753 c-40 -89 -39 -92 40 -124 38 -16 70 -28 71 -27 14 22 56
140 52 145 -4 3 -37 19 -73 34 l-66 28 -24 -56z"/>
<path d="M2560 2570 l0 -80 80 0 80 0 0 80 0 80 -80 0 -80 0 0 -80z"/>
<path d="M1480 2518 c-108 -147 -143 -318 -101 -491 11 -49 21 -91 21 -94 0
-2 -20 13 -44 34 -91 80 -205 123 -329 123 -79 0 -78 4 -23 -110 65 -134 206
-240 367 -274 l64 -14 -70 -1 c-133 -2 -180 -28 -266 -153 l-60 -88 114 0
c137 0 190 15 247 72 l40 40 0 -256 0 -256 80 0 80 0 0 256 0 256 40 -40 c57
-57 110 -72 247 -72 l114 0 -60 88 c-86 125 -133 151 -266 153 l-70 1 70 15
c156 33 297 139 362 273 54 114 55 110 -24 110 -125 0 -238 -43 -331 -124
l-45 -41 7 30 c48 187 47 281 -4 418 -23 62 -97 179 -117 185 -7 2 -26 -16
-43 -40z"/>
<path d="M3110 2355 c0 -4 20 -35 44 -69 107 -150 280 -268 461 -315 43 -12
84 -21 90 -21 6 0 -20 63 -58 140 l-70 141 -91 44 c-50 24 -120 50 -156 59
-77 18 -220 32 -220 21z"/>
<path d="M4585 2349 c-79 -12 -197 -52 -268 -92 -57 -32 -58 -33 -126 -170
l-68 -138 41 7 c137 22 304 107 417 212 53 49 149 169 149 186 0 8 -71 6 -145
-5z"/>
<path d="M3645 1765 c-185 -41 -351 -146 -472 -300 -35 -43 -63 -84 -63 -89 0
-13 156 0 231 19 77 20 191 72 254 115 72 49 167 143 214 209 l42 61 -73 -1
c-40 0 -100 -7 -133 -14z"/>
<path d="M4030 1721 c107 -152 272 -268 456 -321 77 -23 244 -38 244 -24 0 24
-135 177 -201 229 -138 108 -280 163 -443 172 l-99 6 43 -62z"/>
<path d="M3878 1555 l-38 -42 0 -472 0 -471 80 0 80 0 0 473 -1 472 -40 43
c-22 23 -41 42 -42 41 -1 0 -19 -20 -39 -44z"/>
<path d="M1265 810 l-120 -80 -412 0 -413 0 0 -240 0 -240 2320 0 2320 0 0
240 0 240 -263 0 -262 0 -160 -160 -160 -160 -200 0 -200 0 -159 240 -159 240
-165 0 -164 0 -200 -160 -201 -160 -231 0 -231 0 -160 160 -160 160 -250 0
-250 0 -120 -80z m415 -160 l0 -80 -80 0 -80 0 0 80 0 80 80 0 80 0 0 -80z
m1600 0 l0 -80 -80 0 -80 0 0 80 0 80 80 0 80 0 0 -80z m-2640 -160 l0 -80
-80 0 -80 0 0 80 0 80 80 0 80 0 0 -80z m480 0 l0 -80 -80 0 -80 0 0 80 0 80
80 0 80 0 0 -80z m880 0 l0 -80 -80 0 -80 0 0 80 0 80 80 0 80 0 0 -80z m800
-80 l0 -80 -80 0 -80 0 0 80 0 80 80 0 80 0 0 -80z m2000 0 l0 -80 -80 0 -80
0 0 80 0 80 80 0 80 0 0 -80z"/>
</g>
</svg>
