<svg height="512" viewBox="0 0 512 512" width="512" xmlns="http://www.w3.org/2000/svg"><g id="Fruits_Vegetables_Tracking_Monitor" data-name="Fruits Vegetables Tracking Monitor"><g id="Glyph"><path d="m359.801 355.585-103.802-55.832-38.639 20.782 99.699 61.351z"/><path d="m158.881 359.697 97.119 59.763 45.794-28.18-99.794-60.28z"/><path d="m507.789 342.345-66.227-35.621a16 16 0 0 0 -21.054 5.461c-4.586 7.168-7.671 11.825-8.532 13.117a24.011 24.011 0 0 1 -39.952 0c-2.654-3.985-26.424-39.902-50.224-82.994-62.694-32.293-62.83-36.989-69.59-33.353l-21.777 11.713c-7.981 22.859-21 50.65-39.21 83.784l10.383 6.389 37.5-20.172-16.746-9.007a8.182 8.182 0 0 1 -3.734-10.49 8 8 0 0 1 11.071-3.731l26.303 14.145 26.3-14.146a8 8 0 0 1 7.58 14.09l-16.993 9.14 136.813 73.587a8 8 0 0 1 -7.579 14.091l-26.03-14-43.766 26.932 15.267 9.4a8.18 8.18 0 0 1 3.1 10.718 8 8 0 0 1 -11.254 3.051l-22.378-13.77-45.794 28.18 19.016 11.7c6.865 4.225 3.825 14.815-4.2 14.815-2.405 0-.282 1.4-30.14-17.087l-25.837 15.9a8 8 0 0 1 -11.236-3.019 8.177 8.177 0 0 1 3.08-10.749l18.776-11.554c-19.642-12.159-48.3-29.878-90.3-55.672-5.632 8.859-9.468 14.65-10.443 16.114a24.011 24.011 0 0 1 -39.952 0c-2.18-3.274-18.606-28.089-37.589-60.722a16 16 0 0 0 -21.4-6.04l-36.82 19.8a8 8 0 0 0 -.4 13.859c258.079 156.796 248.357 157.542 256.372 152.61l248-152.61a8 8 0 0 0 -.404-13.859z"/><path d="m392 0c-57.346 0-104 49.78-104 110.968 0 58.614 93.367 199.5 97.341 205.466a8 8 0 0 0 13.318 0c3.974-5.969 97.341-146.852 97.341-205.466 0-61.188-46.654-110.968-104-110.968zm16 168a25.313 25.313 0 0 1 -16-6.114 25.313 25.313 0 0 1 -16 6.114c-29.56 0-40-55.846-40-70.118 0-30.517 29.533-39.714 49.563-30.564-2.212-9.499-10.409-19.318-17.563-19.318a8 8 0 0 1 -8-8c0-16.858 36.187-6.318 41.5 26.089 19.828-6.941 46.5 2.767 46.5 31.793 0 14.272-10.44 70.118-40 70.118z"/><path d="m120 64c-57.346 0-104 49.78-104 110.968 0 58.614 93.367 199.5 97.341 205.466a8 8 0 0 0 13.318 0c3.974-5.969 97.341-146.852 97.341-205.466 0-61.188-46.654-110.968-104-110.968zm8 130.435v29.565a8 8 0 0 1 -16 0v-29.415c-109.859-21.185-55.815-109.717-9.606-63.504 8.05 8.049 13.671 21.653 17.3 33.357 26.583-85.7 102.334-35.17 58.91 8.252-12.822 12.824-39.739 19.49-50.604 21.745z"/></g></g></svg>