<?xml version="1.0" standalone="no"?>
<!DOCTYPE svg PUBLIC "-//W3C//DTD SVG 20010904//EN"
 "http://www.w3.org/TR/2001/REC-SVG-20010904/DTD/svg10.dtd">
<svg version="1.0" xmlns="http://www.w3.org/2000/svg"
 width="299.000000pt" height="370.000000pt" viewBox="0 0 299.000000 370.000000"
 preserveAspectRatio="xMidYMid meet">

<g transform="translate(0.000000,370.000000) scale(0.100000,-0.100000)"
fill="#000000" stroke="none">
<path d="M450 3624 c-103 -27 -198 -81 -275 -158 -79 -78 -116 -136 -152 -233
-32 -88 -34 -309 -3 -397 59 -171 199 -318 361 -377 l59 -22 2 -1136 3 -1136
23 -33 c53 -74 156 -92 226 -39 71 54 66 -30 66 1220 l0 1124 59 22 c176 64
328 236 376 426 19 76 19 214 0 290 -56 219 -231 394 -450 450 -74 19 -222 18
-295 -1z m254 -324 c105 -40 175 -135 184 -251 8 -118 -44 -216 -146 -277 -42
-24 -56 -27 -142 -27 -86 0 -100 3 -142 27 -102 61 -154 159 -146 277 14 197
207 320 392 251z"/>
<path d="M2165 3626 c-37 -16 -70 -52 -84 -89 -8 -19 -11 -288 -11 -836 l0
-808 -42 -13 c-183 -54 -346 -234 -393 -432 -19 -80 -19 -205 0 -286 39 -166
168 -326 325 -402 46 -22 90 -40 97 -40 10 0 13 -54 13 -265 0 -297 3 -313 64
-360 78 -59 189 -34 234 55 21 43 22 54 22 306 l0 262 38 12 c114 37 241 136
312 244 200 308 85 721 -246 882 -39 18 -79 34 -88 34 -15 0 -16 65 -16 808
l0 808 -22 44 c-38 74 -130 108 -203 76z m186 -2053 c149 -66 212 -258 133
-403 -55 -101 -141 -150 -263 -150 -75 0 -128 20 -185 70 -63 55 -89 111 -94
201 -4 74 -2 84 27 144 55 111 151 168 271 162 36 -2 86 -13 111 -24z"/>
</g>
</svg>
