<svg xmlns="http://www.w3.org/2000/svg" width="33.762" height="33.64" viewBox="0 0 33.762 33.64">
  <g id="Fruits_Vegetables_Tracking_Monitor" data-name="Fruits Vegetables Tracking Monitor" transform="translate(-5.012 -62)">
    <g id="Glyph" transform="translate(5.012 62)">
      <path id="Path_5117" data-name="Path 5117" d="M226.753,303.435l-6.845-3.682-2.548,1.37,6.574,4.046Z" transform="translate(-203.028 -279.987)" fill="#2dac40"/>
      <path id="Path_5118" data-name="Path 5118" d="M158.881,332.892l6.4,3.941,3.02-1.858L161.724,331Z" transform="translate(-148.405 -309.173)" fill="#2dac40"/>
      <path id="Path_5119" data-name="Path 5119" d="M33.5,216.778l-4.367-2.349a1.055,1.055,0,0,0-1.388.36c-.3.473-.506.78-.563.865a1.583,1.583,0,0,1-2.635,0c-.175-.263-1.742-2.631-3.312-5.473-4.134-2.129-4.143-2.439-4.589-2.2l-1.436.772a37.907,37.907,0,0,1-2.586,5.525l.685.421,2.473-1.33-1.1-.594a.54.54,0,0,1-.246-.692.528.528,0,0,1,.73-.246l1.734.933,1.734-.933a.528.528,0,1,1,.5.929l-1.121.6,9.022,4.852a.528.528,0,1,1-.5.929l-1.716-.923-2.886,1.776,1.007.62a.539.539,0,0,1,.2.707.528.528,0,0,1-.742.2l-1.476-.908-3.02,1.858,1.254.772a.528.528,0,0,1-.277.977c-.159,0-.019.092-1.987-1.127l-1.7,1.048a.528.528,0,0,1-.741-.2.539.539,0,0,1,.2-.709l1.238-.762c-1.3-.8-3.185-1.97-5.955-3.671-.371.584-.624.966-.689,1.063a1.583,1.583,0,0,1-2.635,0c-.144-.216-1.227-1.852-2.479-4a1.055,1.055,0,0,0-1.411-.4L.29,216.778a.528.528,0,0,0-.026.914c17.018,10.339,16.377,10.389,16.906,10.063l16.354-10.063a.528.528,0,0,0-.027-.914Z" transform="translate(-0.012 -194.203)" fill="#2dac40"/>
      <path id="Path_5120" data-name="Path 5120" d="M294.858,0A7.107,7.107,0,0,0,288,7.317c0,3.865,6.157,13.155,6.419,13.549a.528.528,0,0,0,.878,0c.262-.394,6.419-9.684,6.419-13.549A7.107,7.107,0,0,0,294.858,0Zm1.055,11.078a1.582,1.582,0,0,0-2.11,0c-1.949,0-2.638-3.683-2.638-4.624a2.229,2.229,0,0,1,3.268-2.015c-.146-.626-.686-1.274-1.158-1.274a.528.528,0,0,1-.527-.528c0-1.112,2.386-.417,2.737,1.72a2.209,2.209,0,0,1,3.066,2.1C298.551,7.4,297.862,11.078,295.913,11.078Z" transform="translate(-269.009)" fill="#2dac40"/>
      <path id="Path_5121" data-name="Path 5121" d="M22.858,64A7.107,7.107,0,0,0,16,71.317c0,3.865,6.157,13.155,6.419,13.549a.528.528,0,0,0,.878,0c.262-.394,6.419-9.684,6.419-13.549A7.107,7.107,0,0,0,22.858,64Zm.528,8.6v1.95a.528.528,0,1,1-1.055,0v-1.94c-7.244-1.4-3.681-7.235-.633-4.188a5.6,5.6,0,0,1,1.141,2.2c1.753-5.651,6.748-2.319,3.885.544A7.523,7.523,0,0,1,23.386,72.6Z" transform="translate(-14.946 -59.78)" fill="#2dac40"/>
    </g>
  </g>
</svg>
