<?xml version="1.0" standalone="no"?>
<!DOCTYPE svg PUBLIC "-//W3C//DTD SVG 20010904//EN"
 "http://www.w3.org/TR/2001/REC-SVG-20010904/DTD/svg10.dtd">
<svg version="1.0" xmlns="http://www.w3.org/2000/svg"
 width="495.000000pt" height="533.000000pt" viewBox="0 0 495.000000 533.000000"
 preserveAspectRatio="xMidYMid meet">

<g transform="translate(0.000000,533.000000) scale(0.100000,-0.100000)"
fill="#000000" stroke="none">
<path d="M2259 4604 c-325 -58 -594 -285 -702 -591 -118 -331 -44 -685 197
-940 127 -135 282 -225 462 -270 108 -26 294 -22 414 10 546 143 840 688 651
1205 -152 416 -586 665 -1022 586z"/>
<path d="M2885 2740 c-186 -93 -391 -132 -580 -111 -142 16 -231 42 -361 106
-61 30 -118 55 -127 55 -28 0 -254 -69 -364 -112 -136 -52 -344 -158 -459
-233 -217 -141 -357 -350 -399 -594 -13 -73 -15 -158 -13 -433 3 -375 3 -373
67 -441 36 -40 74 -58 237 -111 460 -149 909 -227 1409 -242 245 -8 686 15
684 35 0 3 -30 29 -66 56 -173 132 -318 362 -379 604 -145 570 214 1186 779
1336 37 10 64 21 60 25 -18 16 -251 90 -338 107 -36 7 -50 3 -150 -47z"/>
<path d="M3470 2529 c-98 -15 -250 -70 -343 -125 -105 -63 -265 -221 -322
-319 -107 -184 -138 -296 -139 -500 0 -177 18 -262 90 -414 91 -194 211 -319
405 -423 118 -62 132 -67 284 -98 135 -27 173 -31 241 -26 238 19 443 112 605
275 129 130 218 285 261 457 31 124 31 342 -1 459 -23 88 -93 240 -142 312
-131 190 -356 341 -582 389 -90 19 -272 26 -357 13z m205 -334 l25 -24 0 -256
0 -255 255 0 256 0 24 -25 c27 -26 31 -51 14 -88 -20 -43 -45 -47 -304 -47
l-245 0 0 -245 c0 -264 -4 -286 -51 -306 -34 -14 -84 2 -99 32 -6 10 -10 127
-10 268 l0 251 -245 0 c-196 0 -252 3 -274 15 -48 24 -56 81 -16 120 l24 25
256 0 255 0 0 255 0 256 25 24 c15 16 36 25 55 25 19 0 40 -9 55 -25z"/>
</g>
</svg>
