<?xml version="1.0" standalone="no"?>
<!DOCTYPE svg PUBLIC "-//W3C//DTD SVG 20010904//EN"
 "http://www.w3.org/TR/2001/REC-SVG-20010904/DTD/svg10.dtd">
<svg version="1.0" xmlns="http://www.w3.org/2000/svg"
 width="555.000000pt" height="608.000000pt" viewBox="0 0 555.000000 608.000000"
 preserveAspectRatio="xMidYMid meet">

<g transform="translate(0.000000,608.000000) scale(0.100000,-0.100000)"
fill="#000000" stroke="none">
<path d="M1078 5735 c-138 -34 -285 -149 -347 -274 -52 -102 -61 -161 -61
-407 0 -209 1 -223 21 -248 27 -34 77 -36 106 -3 20 21 22 35 25 257 4 214 6
240 26 292 40 101 118 179 220 220 l57 23 1529 3 c982 1 1549 -1 1583 -8 30
-5 71 -17 91 -27 60 -28 126 -102 151 -166 l21 -58 0 -1319 c0 -945 3 -1326
11 -1343 21 -47 80 -56 121 -19 17 14 18 92 18 1362 0 1322 0 1348 -20 1405
-50 145 -155 251 -300 303 -41 15 -194 17 -1620 19 -1319 1 -1584 -1 -1632
-12z"/>
<path d="M2620 4966 c-374 -67 -676 -269 -882 -591 -62 -97 -115 -225 -148
-354 -145 -580 137 -1185 674 -1446 190 -93 343 -128 556 -128 214 0 369 36
556 128 561 275 834 898 659 1500 -128 437 -498 779 -955 880 -102 22 -361 29
-460 11z m360 -150 c248 -38 457 -144 634 -322 421 -424 430 -1110 21 -1543
-337 -357 -863 -454 -1301 -241 -351 170 -584 504 -623 892 -72 719 558 1321
1269 1214z"/>
<path d="M2650 4665 c-43 -8 -109 -31 -156 -54 -187 -93 -290 -289 -224 -426
28 -57 84 -100 152 -114 83 -18 120 -2 208 89 67 70 80 79 122 85 104 16 178
-19 178 -84 0 -50 -28 -86 -136 -174 -106 -87 -143 -132 -184 -219 -36 -78
-50 -146 -50 -252 0 -160 65 -230 214 -229 85 1 136 22 178 74 26 32 31 48 38
133 5 65 14 105 27 125 10 15 63 68 118 118 108 96 187 200 226 299 20 49 24
77 24 169 0 103 -2 114 -32 178 -62 130 -198 233 -360 273 -89 21 -255 26
-343 9z m314 -161 c177 -43 289 -179 273 -331 -3 -30 -20 -84 -37 -121 -26
-56 -53 -88 -169 -202 -154 -150 -181 -191 -188 -284 -9 -130 -7 -126 -68
-126 -51 0 -55 2 -61 26 -4 14 -4 60 -1 102 8 109 47 183 139 264 153 135 179
162 204 214 19 39 26 69 26 113 0 158 -123 251 -318 238 -105 -6 -169 -39
-233 -117 -48 -60 -80 -73 -112 -44 -25 22 -24 57 2 110 70 146 308 215 543
158z"/>
<path d="M2670 3249 c-55 -25 -105 -71 -133 -124 -29 -55 -30 -173 -3 -229 47
-93 131 -146 236 -146 78 0 131 22 183 74 51 51 69 90 75 163 15 194 -185 341
-358 262z m146 -145 c58 -28 78 -88 49 -144 -21 -40 -53 -60 -96 -60 -76 0
-128 83 -94 153 15 33 62 66 93 67 8 0 29 -7 48 -16z"/>
<path d="M691 4594 l-21 -27 0 -1731 c0 -1902 -3 -1791 61 -1918 46 -91 149
-190 241 -232 40 -19 100 -39 133 -46 44 -8 481 -10 1620 -8 1504 3 1562 4
1609 22 108 42 202 117 252 202 58 99 64 136 64 409 0 240 -1 253 -20 270 -31
28 -79 24 -107 -9 -23 -27 -23 -30 -23 -256 0 -203 -2 -236 -19 -280 -25 -66
-61 -112 -115 -150 -92 -63 -11 -60 -1667 -60 -970 0 -1525 4 -1559 10 -124
24 -229 101 -276 205 -83 180 -26 381 136 485 98 63 9 60 1685 60 1680 0 1607
-2 1725 61 79 42 163 132 203 216 l32 68 3 299 c3 297 3 298 -19 322 -36 39
-90 31 -114 -17 -12 -22 -15 -79 -15 -283 0 -231 -2 -260 -20 -309 -29 -76
-79 -130 -158 -169 l-67 -33 -1590 -5 -1590 -5 -55 -22 c-54 -22 -115 -59
-172 -103 l-28 -22 0 1519 c0 1515 0 1519 -20 1541 -30 32 -82 30 -109 -4z"/>
<path d="M4284 1416 c-17 -13 -20 -31 -24 -166 l-5 -152 -33 -29 -32 -29
-1549 0 -1548 0 -27 -21 c-33 -26 -36 -79 -6 -109 20 -20 33 -20 1588 -20
l1568 0 55 28 c68 34 114 93 129 167 7 31 10 111 8 179 -2 105 -6 127 -22 145
-22 25 -73 28 -102 7z"/>
<path d="M1090 1353 c-30 -11 -50 -37 -50 -65 0 -42 15 -64 51 -77 42 -14
2938 -16 2988 -1 51 14 73 56 55 105 -18 47 35 45 -1546 44 -816 0 -1490 -3
-1498 -6z"/>
</g>
</svg>
