<?xml version="1.0" standalone="no"?>
<!DOCTYPE svg PUBLIC "-//W3C//DTD SVG 20010904//EN"
 "http://www.w3.org/TR/2001/REC-SVG-20010904/DTD/svg10.dtd">
<svg version="1.0" xmlns="http://www.w3.org/2000/svg"
 width="600.000000pt" height="517.000000pt" viewBox="0 0 600.000000 517.000000"
 preserveAspectRatio="xMidYMid meet">

<g transform="translate(0.000000,517.000000) scale(0.100000,-0.100000)"
fill="#000000" stroke="none">
<path d="M2720 5114 c-247 -28 -364 -50 -532 -100 -890 -261 -1577 -998 -1778
-1904 -42 -193 -54 -309 -54 -540 -1 -229 9 -335 45 -515 80 -396 266 -792
523 -1107 39 -48 72 -85 74 -83 2 2 17 50 33 107 86 295 244 568 464 796 208
217 415 359 680 467 50 21 91 38 92 39 2 1 -26 23 -61 49 -512 376 -639 1089
-289 1616 64 96 180 222 263 286 376 289 908 327 1315 94 597 -342 786 -1098
418 -1677 -78 -122 -176 -226 -306 -324 -27 -20 -51 -39 -53 -41 -2 -2 29 -16
68 -32 553 -214 1010 -712 1164 -1267 14 -51 28 -100 30 -108 6 -17 20 -1 139
156 352 465 531 1028 511 1609 -18 561 -197 1055 -544 1505 -84 109 -323 348
-432 432 -365 281 -749 448 -1200 519 -119 19 -480 34 -570 23z"/>
<path d="M2860 4172 c-409 -23 -743 -316 -826 -723 -25 -122 -15 -304 21 -419
124 -387 464 -640 860 -640 327 0 645 199 793 495 84 168 114 386 78 565 -90
443 -481 748 -926 722z"/>
<path d="M2738 2070 c-521 -55 -994 -363 -1265 -825 -92 -157 -177 -393 -198
-550 -3 -27 -9 -59 -11 -71 -4 -16 13 -34 88 -91 287 -218 561 -351 938 -457
152 -42 431 -76 630 -76 185 0 458 34 610 77 370 102 655 240 938 455 106 81
99 54 61 242 -41 198 -144 432 -267 606 -81 115 -269 304 -377 381 -219 155
-454 254 -700 294 -116 19 -336 26 -447 15z"/>
</g>
</svg>
