<svg xmlns="http://www.w3.org/2000/svg" width="429.31" height="752.452" viewBox="0 0 429.31 752.452">
  <path id="Path_1" data-name="Path 1" d="M498,423.646c-.881.012-.1.663,0,1.586a26.881,26.881,0,0,1,0,3.991c-.5,4.915.953,12.749,0,15.388-1.074,2.948.027,6.251,0,8.585-.047,3.531-.286,5.669,0,12.453.916,21.776-1.287,46.32,0,74.815.275,6.1-.06,13.833,0,21.737.04,5.256.675,10.666,0,15.69-.833,6.2.729,13.441,0,19.892-.5,4.4-.036,9.742,0,14.691.044,6.176-.088,12.457,0,18.988.075,5.6.383,11.442,0,17.344-2.5,38.46.254,80.266,0,116.815-.63,90.621,0,161.179,0,161.179H925.358V174.985S855.831,418.684,498,423.646Z" transform="translate(-496.549 -174.847)" stroke="#707070" stroke-width="1"/>
</svg>
