<svg id="Icons" height="512" viewBox="0 0 74 74" width="512" xmlns="http://www.w3.org/2000/svg"><path d="m8.624 67.943h-5.624a1 1 0 0 1 -1-1v-29.818a1 1 0 0 1 1-1h5.624a4.654 4.654 0 0 1 4.649 4.648v22.521a4.655 4.655 0 0 1 -4.649 4.649zm-4.624-2h4.624a2.653 2.653 0 0 0 2.649-2.649v-22.521a2.652 2.652 0 0 0 -2.649-2.648h-4.624z"/><path d="m33.958 70a25.877 25.877 0 0 1 -10.322-2.146l-11.762-5.116a1 1 0 1 1 .8-1.834l11.762 5.115a23.909 23.909 0 0 0 22.083-1.584l22.914-14.154a9.609 9.609 0 0 0 -10.5-1.747l-12.033 5.444a1 1 0 1 1 -.824-1.822l12.034-5.444a11.608 11.608 0 0 1 13.663 3.136 1 1 0 0 1 -.243 1.491l-23.958 14.8a25.887 25.887 0 0 1 -13.614 3.861z"/><path d="m44.6 54.579h-13.782a1 1 0 0 1 0-2h13.782a2.735 2.735 0 0 0 0-5.47h-9.4a1 1 0 0 1 -.707-.293 13.863 13.863 0 0 0 -9.865-4.086h-12.355a1 1 0 0 1 0-2h12.352a15.843 15.843 0 0 1 10.975 4.379h9a4.735 4.735 0 0 1 0 9.47z"/><path d="m57.591 49.04h-.085a1 1 0 0 1 -.913-1.08 5.956 5.956 0 0 0 -4.29-6.2 5.852 5.852 0 0 0 -1.814-.232.949.949 0 0 1 -.9-.505 5.93 5.93 0 0 0 -3.536-2.793 6.014 6.014 0 0 0 -6.906 2.894 1 1 0 0 1 -1.351.407 6.038 6.038 0 0 0 -1.193-.481 5.907 5.907 0 0 0 -6.372 2.088 1 1 0 1 1 -1.586-1.219 7.9 7.9 0 0 1 8.511-2.791c.247.071.491.153.729.246a8.038 8.038 0 0 1 8.718-3.066 7.893 7.893 0 0 1 4.415 3.226 7.638 7.638 0 0 1 1.844.306 7.96 7.96 0 0 1 5.722 8.283 1 1 0 0 1 -.993.917z"/><path d="m46.329 38.27a1 1 0 0 1 -1-.946 43.937 43.937 0 0 1 1.521-13.962c1.51-5.055 4.043-8.719 7.528-10.891a1 1 0 1 1 1.058 1.7c-3.06 1.907-5.3 5.193-6.671 9.768a41.837 41.837 0 0 0 -1.439 13.28 1 1 0 0 1 -.945 1.053z"/><path d="m51.989 25.9a8.944 8.944 0 0 1 -8.854-8.562 8.371 8.371 0 0 1 2.418-6.22c5.024-5.093 16.464-7.02 16.948-7.1a1 1 0 0 1 .952 1.6 16.055 16.055 0 0 0 -2.442 5.979 30.242 30.242 0 0 0 -.435 3.582c-.236 2.808-.48 5.712-1.938 7.543a8.374 8.374 0 0 1 -5.886 3.144c-.252.018-.51.034-.763.034zm8.677-19.474c-3.5.8-10.356 2.712-13.689 6.092a6.394 6.394 0 0 0 -1.844 4.749 6.934 6.934 0 0 0 7.447 6.6 6.391 6.391 0 0 0 4.493-2.4c1.081-1.357 1.3-3.953 1.51-6.464a31.749 31.749 0 0 1 .472-3.832 20.719 20.719 0 0 1 1.611-4.745z"/><path d="m46.4 32.6a1 1 0 0 1 -.7-.289 21.105 21.105 0 0 0 -4.087-3.232 9.918 9.918 0 0 0 -5.356-1.613.988.988 0 0 1 -1.035-.964 1 1 0 0 1 .964-1.035 11.882 11.882 0 0 1 6.445 1.89 23.17 23.17 0 0 1 4.469 3.536 1 1 0 0 1 -.7 1.711z"/><path d="m37.9 32.554a5.465 5.465 0 0 1 -.824-.064c-1.467-.228-2.759-1.414-4.008-2.561a17.2 17.2 0 0 0 -1.551-1.323 8.952 8.952 0 0 0 -3.218-1.52 1 1 0 0 1 -.381-1.821c.242-.16 5.98-3.9 10.264-3.7a5.269 5.269 0 0 1 3.772 1.849 5.6 5.6 0 0 1 -.813 8.019 5.271 5.271 0 0 1 -3.241 1.121zm-7.079-6.675a12.768 12.768 0 0 1 1.852 1.095 19.034 19.034 0 0 1 1.748 1.482c.981.9 2.094 1.922 2.962 2.057a3.292 3.292 0 0 0 2.536-.659 3.6 3.6 0 0 0 .52-5.132 3.29 3.29 0 0 0 -2.352-1.156c-2.323-.108-5.368 1.283-7.271 2.313z"/></svg>