<svg xmlns="http://www.w3.org/2000/svg" width="55" height="52.708" viewBox="0 0 55 52.708">
  <g id="like" transform="translate(55 63.375) rotate(180)" opacity="0.5">
    <g id="Group_9433" data-name="Group 9433" transform="translate(0 33.584)">
      <g id="Group_9432" data-name="Group 9432">
        <path id="Path_5064" data-name="Path 5064" d="M5.729,224A5.737,5.737,0,0,0,0,229.729v18.333a5.737,5.737,0,0,0,5.729,5.729H12.6a5.688,5.688,0,0,0,3.438-1.16V224Z" transform="translate(0 -224)" fill="#2dac40"/>
      </g>
    </g>
    <g id="Group_9435" data-name="Group 9435" transform="translate(18.333 10.667)">
      <g id="Group_9434" data-name="Group 9434">
        <path id="Path_5065" data-name="Path 5065" d="M207.334,42.177a5.082,5.082,0,0,0-1.492-3.607,5.69,5.69,0,0,0,1.467-4.375,5.924,5.924,0,0,0-5.977-5.2H187.176A32.949,32.949,0,0,0,189,19.834c0-4.971-4.223-9.167-6.875-9.167a7.208,7.208,0,0,0-4.155,1.4,1.151,1.151,0,0,0-.429.9V20.73l-6.6,14.3-.275.14V59.729a15.015,15.015,0,0,0,5.729,1.354h21.035a5.271,5.271,0,0,0,5.193-4,5.155,5.155,0,0,0-.415-3.442,5.133,5.133,0,0,0,2.294-6.877A5.13,5.13,0,0,0,207.334,42.177Z" transform="translate(-170.667 -10.667)" fill="#2dac40"/>
      </g>
    </g>
  </g>
</svg>
