<svg height="512pt" viewBox="-30 0 512 512" width="512pt" xmlns="http://www.w3.org/2000/svg"><path d="m0 382h240v50h-240zm0 0"/><path d="m270 382h120v50h-120zm0 0"/><path d="m0 497c0 8.285156 6.714844 15 15 15h105v-50h-120zm0 0"/><path d="m150 512h225c8.285156 0 15-6.714844 15-15v-35h-240zm0 0"/><path d="m436 107h-24v-60c0-8.285156-6.714844-15-15-15h-107v-17c0-8.285156-6.714844-15-15-15h-160c-8.285156 0-15 6.714844-15 15v17h-83c-8.285156 0-15 6.714844-15 15s6.714844 15 15 15h23v240h-25c-8.285156 0-15 6.714844-15 15v35h120v-50h-50v-240h30v13c0 8.285156 6.714844 15 15 15h65v32h-45c-4.195312 0-8.199219 1.757812-11.039062 4.84375-2.839844 3.085938-4.257813 7.222656-3.910157 11.402344l10 120c.648438 7.773437 7.148438 13.753906 14.949219 13.753906h100c7.800781 0 14.300781-5.980469 14.949219-13.753906l10-120c.347656-4.179688-1.070313-8.316406-3.910157-11.402344-2.839843-3.085938-6.84375-4.84375-11.039062-4.84375h-45v-32h65c8.285156 0 15-6.714844 15-15v-13h30v240h-170v50h240v-35c0-8.285156-6.714844-15-15-15h-25v-240h32v60c0 8.285156 6.714844 15 15 15h39c8.285156 0 15-6.714844 15-15s-6.714844-15-15-15zm0 0"/></svg>